<mxfile host="app.diagrams.net" modified="2023-09-18T06:42:39.626Z" agent="Mozilla/5.0 (Windows NT 10.0; Win64; x64; rv:109.0) Gecko/20100101 Firefox/117.0" etag="jV5QT5RBD1AKV2pl2Dll" version="21.6.9" type="device">
  <diagram name="Page-1" id="e7e014a7-5840-1c2e-5031-d8a46d1fe8dd">
    <mxGraphModel dx="1687" dy="878" grid="1" gridSize="10" guides="1" tooltips="1" connect="1" arrows="1" fold="1" page="1" pageScale="1" pageWidth="1169" pageHeight="826" background="none" math="0" shadow="0">
      <root>
        <mxCell id="0" />
        <mxCell id="1" parent="0" />
        <mxCell id="2" value="1.配置" style="swimlane;whiteSpace=wrap;startSize=23;fontSize=22;" parent="1" vertex="1">
          <mxGeometry y="40" width="420" height="490" as="geometry" />
        </mxCell>
        <mxCell id="T6ysN8mpph5YRO5onDUA-45" style="edgeStyle=orthogonalEdgeStyle;rounded=0;orthogonalLoop=1;jettySize=auto;html=1;entryX=0;entryY=0.5;entryDx=0;entryDy=0;" edge="1" parent="2" source="8" target="10">
          <mxGeometry relative="1" as="geometry">
            <Array as="points">
              <mxPoint x="160" y="240" />
              <mxPoint x="160" y="70" />
            </Array>
          </mxGeometry>
        </mxCell>
        <mxCell id="T6ysN8mpph5YRO5onDUA-51" value="&lt;font style=&quot;font-size: 18px;&quot;&gt;无序漏斗&lt;/font&gt;" style="edgeLabel;html=1;align=center;verticalAlign=middle;resizable=0;points=[];" vertex="1" connectable="0" parent="T6ysN8mpph5YRO5onDUA-45">
          <mxGeometry x="0.0527" y="3" relative="1" as="geometry">
            <mxPoint as="offset" />
          </mxGeometry>
        </mxCell>
        <mxCell id="T6ysN8mpph5YRO5onDUA-46" style="edgeStyle=orthogonalEdgeStyle;rounded=0;orthogonalLoop=1;jettySize=auto;html=1;entryX=0;entryY=0.25;entryDx=0;entryDy=0;" edge="1" parent="2" source="8" target="T6ysN8mpph5YRO5onDUA-41">
          <mxGeometry relative="1" as="geometry">
            <Array as="points">
              <mxPoint x="160" y="240" />
              <mxPoint x="160" y="368" />
            </Array>
          </mxGeometry>
        </mxCell>
        <mxCell id="T6ysN8mpph5YRO5onDUA-50" value="&lt;div style=&quot;font-size: 12px;&quot;&gt;&lt;font style=&quot;font-size: 18px;&quot;&gt;有序漏斗&lt;/font&gt;&lt;/div&gt;" style="edgeLabel;html=1;align=center;verticalAlign=middle;resizable=0;points=[];" vertex="1" connectable="0" parent="T6ysN8mpph5YRO5onDUA-46">
          <mxGeometry x="-0.201" y="-1" relative="1" as="geometry">
            <mxPoint as="offset" />
          </mxGeometry>
        </mxCell>
        <mxCell id="8" value="报表配置" style="fontSize=18;" parent="2" vertex="1">
          <mxGeometry x="30" y="210" width="80" height="60" as="geometry" />
        </mxCell>
        <mxCell id="10" value="Hive 任务组装器" style="fontSize=18;" parent="2" vertex="1">
          <mxGeometry x="200" y="40" width="140" height="60" as="geometry" />
        </mxCell>
        <mxCell id="T6ysN8mpph5YRO5onDUA-41" value="Spark任务组装器" style="fontSize=18;" vertex="1" parent="2">
          <mxGeometry x="190" y="350" width="140" height="73" as="geometry" />
        </mxCell>
        <mxCell id="3" value="2.计算" style="swimlane;whiteSpace=wrap;fontSize=22;" parent="1" vertex="1">
          <mxGeometry x="520" y="30" width="280" height="490" as="geometry" />
        </mxCell>
        <mxCell id="T6ysN8mpph5YRO5onDUA-58" style="edgeStyle=orthogonalEdgeStyle;rounded=0;orthogonalLoop=1;jettySize=auto;html=1;" edge="1" parent="3" source="15">
          <mxGeometry relative="1" as="geometry">
            <mxPoint x="360" y="275" as="targetPoint" />
          </mxGeometry>
        </mxCell>
        <mxCell id="15" value="Iceberg数仓表&#xa;Hive数仓表" style="fontSize=18;" parent="3" vertex="1">
          <mxGeometry x="60" y="250" width="150" height="50" as="geometry" />
        </mxCell>
        <mxCell id="4" value="3. 存储" style="swimlane;whiteSpace=wrap;fontSize=22;" parent="1" vertex="1">
          <mxGeometry x="880" y="40" width="280" height="480" as="geometry" />
        </mxCell>
        <mxCell id="33" value="MySQL" style="fontSize=18;" parent="4" vertex="1">
          <mxGeometry x="85" y="120" width="110" height="50" as="geometry" />
        </mxCell>
        <mxCell id="T6ysN8mpph5YRO5onDUA-49" value="ClickHouse" style="fontSize=18;" vertex="1" parent="4">
          <mxGeometry x="85" y="330" width="110" height="50" as="geometry" />
        </mxCell>
        <mxCell id="T6ysN8mpph5YRO5onDUA-44" style="edgeStyle=orthogonalEdgeStyle;rounded=0;orthogonalLoop=1;jettySize=auto;html=1;entryX=0.5;entryY=0;entryDx=0;entryDy=0;" edge="1" parent="1" source="10" target="15">
          <mxGeometry relative="1" as="geometry" />
        </mxCell>
        <mxCell id="T6ysN8mpph5YRO5onDUA-55" value="分析计算" style="edgeLabel;html=1;align=center;verticalAlign=middle;resizable=0;points=[];fontSize=18;" vertex="1" connectable="0" parent="T6ysN8mpph5YRO5onDUA-44">
          <mxGeometry x="-0.3535" y="7" relative="1" as="geometry">
            <mxPoint as="offset" />
          </mxGeometry>
        </mxCell>
        <mxCell id="T6ysN8mpph5YRO5onDUA-47" style="edgeStyle=orthogonalEdgeStyle;rounded=0;orthogonalLoop=1;jettySize=auto;html=1;entryX=0.5;entryY=1;entryDx=0;entryDy=0;" edge="1" parent="1" source="T6ysN8mpph5YRO5onDUA-41" target="15">
          <mxGeometry relative="1" as="geometry" />
        </mxCell>
        <mxCell id="T6ysN8mpph5YRO5onDUA-56" value="分析计算" style="edgeLabel;html=1;align=center;verticalAlign=middle;resizable=0;points=[];fontSize=18;" vertex="1" connectable="0" parent="T6ysN8mpph5YRO5onDUA-47">
          <mxGeometry x="-0.2366" y="1" relative="1" as="geometry">
            <mxPoint as="offset" />
          </mxGeometry>
        </mxCell>
      </root>
    </mxGraphModel>
  </diagram>
</mxfile>
